[Header]
FileType HTR
DataType HTRS
FileVersion 1
NumSegments 22
NumFrames 4
DataFrameRate 24
EulerRotationOrder ZYX
CalibrationUnits mm
RotationUnits Degrees
GlobalAxisofGravity Y
BoneLengthAxis Y
ScaleFactor 1.0
[SegmentNames&Hierarchy]
reference	GLOBAL
Hips	reference
Spine	Hips
Spine1	Spine
Neck	Spine1
Head	Neck
LeftShoulder	Spine1
LeftArm	LeftShoulder
LeftForeArm	LeftArm
LeftHand	LeftForeArm
RightShoulder	Spine1
RightArm	RightShoulder
RightForeArm	RightArm
RightHand	RightForeArm
LeftUpLeg	Hips
LeftLeg	LeftUpLeg
LeftFoot	LeftLeg
LeftToeBase	LeftFoot
RightUpLeg	Hips
RightLeg	RightUpLeg
RightFoot	RightLeg
RightToeBase	RightFoot
[BasePosition]
reference	0	0	0	0	0	0	1
Hips	0	0	0	0	0	0	1
Spine	0	0	0	0	-0	90	1
Spine1	0	0	0	0	0	0	1
Neck	0	0	0	-7.352327771	-7.352327771	90	1
Head	0	0	0	0	-0	90	1
LeftShoulder	0	0	0	0	0	0	1
LeftArm	0	0	0	0	0	0	1
LeftForeArm	0	0	0	0	0	0	1
LeftHand	0	0	0	0	0	0	1
RightShoulder	0	0	0	0	-0	180	1
RightArm	0	0	0	0	-0	180	1
RightForeArm	0	0	0	0	-0	180	1
RightHand	0	0	0	0	-0	180	1
LeftUpLeg	0	0	0	0	-0	-90	1
LeftLeg	0	0	0	0	-0	-90	1
LeftFoot	0	0	0	66.57146043	-66.57146043	-90	1
LeftToeBase	0	0	0	0	-90	0	1
RightUpLeg	0	0	0	0	-0	-90	1
RightLeg	0	0	0	0	-0	-90	1
RightFoot	0	0	0	66.57146043	-66.57146043	-90	1
RightToeBase	0	0	0	0	-90	0	1
[reference]
91	0	0	0	0	-0	0	1.0
92	0	0	0	0	-0	0	1.0
93	0	0	0	0	-0	0	1.0
94	0	0	0	0	-0	0	1.0
[Hips]
91	2.541202545	8.543375969	1.422320724	5.739730835	-132.2171936	2.85295105	1.0
92	2.622880936	8.536438942	1.418155432	6.423264503	-132.4073486	3.068741083	1.0
93	2.728413343	8.531694412	1.413758755	6.074198723	-133.0432892	3.225152493	1.0
94	2.864997625	8.624998093	1.409391642	5.497199059	-134.5106659	2.98871994	1.0
[Spine]
91	0	0.7457100153	0	-8.268079758	1.408192992	-92.36711121	1.0
92	0	0.7457100153	0	-9.395817757	1.602456689	-92.00785065	1.0
93	0	0.7457100153	0	-9.753805161	1.852917671	-91.54675293	1.0
94	0	0.7457100153	0	-9.692808151	2.396072865	-91.59568787	1.0
[Spine1]
91	0	2.140589952	0	4.035413742	0.3691166043	4.459095001	1.0
92	0	2.140589952	0	3.94920373	0.4501205683	4.524683475	1.0
93	0	2.140589952	0	4.084795952	0.5019829273	4.362625599	1.0
94	0	2.140589952	0	3.830964565	0.6883867383	4.59030056	1.0
[Neck]
91	0	2.32246995	0	-22.70668221	15.71747494	-91.22871399	1.0
92	0	2.32246995	0	-22.76426315	15.40106106	-91.0566864	1.0
93	0	2.32246995	0	-22.59250259	15.11200714	-91.07585907	1.0
94	0	2.32246995	0	-21.51792526	15.43495464	-91.04627991	1.0
[Head]
91	0	1.409579992	0.1818799973	0.4464440048	9.450754166	-93.10113525	1.0
92	0	1.409579992	0.1818799973	0.002152694389	9.055289268	-92.96302795	1.0
93	0	1.409579992	0.1818799973	0.2055213898	8.727938652	-92.73312378	1.0
94	0	1.409579992	0.1818799973	0.270206362	9.016765594	-92.4972229	1.0
[LeftShoulder]
91	0.3668199778	1.946700096	-0.02662999928	-17.96642685	-15.84972763	0.4404042959	1.0
92	0.3668199778	1.946700096	-0.02662999928	-18.10874939	-15.65127468	0.7521328926	1.0
93	0.3668199778	1.946700096	-0.02662999928	-17.66242409	-14.94786549	1.527201653	1.0
94	0.3668199778	1.946700096	-0.02662999928	-17.63516617	-14.15533447	2.330413342	1.0
[LeftArm]
91	1.140689969	0	0	34.41379166	-10.62201595	-59.6347084	1.0
92	1.140689969	0	0	33.55178452	-10.22772884	-59.19480896	1.0
93	1.140689969	0	0	34.04824829	-10.52155495	-58.75963974	1.0
94	1.140689969	0	0	34.43803406	-9.619568825	-58.7293396	1.0
[LeftForeArm]
91	2.749800205	0	0	67.78030396	-139.7348785	-41.77220154	1.0
92	2.749800205	0	0	61.09784698	-140.4840393	-36.87457275	1.0
93	2.749800205	0	0	61.81857681	-142.6100159	-34.11349869	1.0
94	2.749800205	0	0	58.05955887	-143.1250458	-30.420784	1.0
[LeftHand]
91	2.295179844	0	0	-23.75111771	-20.58981323	-4.250705242	1.0
92	2.295179844	0	0	-23.42881203	-20.69247818	-6.641048908	1.0
93	2.295179844	0	0	-21.53275681	-20.32979202	-5.882671356	1.0
94	2.295179844	0	0	-19.61920166	-20.25193405	-4.087948799	1.0
[RightShoulder]
91	-0.3601199985	1.946700096	-0.02662999928	-9.134179115	6.284803867	173.3219757	1.0
92	-0.3601199985	1.946700096	-0.02662999928	-8.991160393	6.173342228	173.1188354	1.0
93	-0.3601199985	1.946700096	-0.02662999928	-9.024271965	6.273712158	172.8935089	1.0
94	-0.3601199985	1.946700096	-0.02662999928	-8.769807816	6.4333148	173.0682831	1.0
[RightArm]
91	-1.140689969	0	0	50.90475464	16.05128098	-105.8517151	1.0
92	-1.140689969	0	0	50.40227509	16.49107552	-106.6383286	1.0
93	-1.140689969	0	0	49.91676331	16.14370155	-107.2396698	1.0
94	-1.140689969	0	0	49.97917175	15.6636858	-108.024437	1.0
[RightForeArm]
91	-2.749800205	0	0	-89.63822174	47.49629211	49.47916031	1.0
92	-2.749800205	0	0	-93.18493652	45.85401917	44.87589264	1.0
93	-2.749800205	0	0	-97.11727905	44.58303833	40.71715546	1.0
94	-2.749800205	0	0	-100.0859528	43.81313324	37.51092529	1.0
[RightHand]
91	-2.295179844	0	0	-3.090420723	16.76362801	174.5287628	1.0
92	-2.295179844	0	0	-2.73644352	17.29603577	173.9455414	1.0
93	-2.295179844	0	0	-2.430615425	17.98641396	173.6125488	1.0
94	-2.295179844	0	0	-1.66429472	18.14408875	172.3867035	1.0
[LeftUpLeg]
91	0.9094099998	0	0	-22.19124222	-1.424826622	95.87438965	1.0
92	0.9094099998	0	0	-22.98881912	1.525138378	95.29450989	1.0
93	0.9094099998	0	0	-22.20637894	3.313751936	95.41818237	1.0
94	0.9094099998	0	0	-19.52606964	2.519954205	96.66652679	1.0
[LeftLeg]
91	0	-4.498080254	0	36.58509445	-1.063535333	77.86923218	1.0
92	0	-4.498080254	0	36.46789932	-2.625073195	79.19773102	1.0
93	0	-4.498080254	0	34.40508652	-3.342183828	80.20297241	1.0
94	0	-4.498080254	0	29.27118683	-1.814502239	81.28067017	1.0
[LeftFoot]
91	0	-3.729400158	0	-71.68126678	113.1848755	-14.48014545	1.0
92	0	-3.729400158	0	-73.75514984	111.9230728	-17.22859192	1.0
93	0	-3.729400158	0	-73.63700867	111.0448074	-19.61627197	1.0
94	0	-3.729400158	0	-71.04954529	110.6601944	-20.91355896	1.0
[LeftToeBase]
91	0	-0.5911099911	1.364109993	0	0	0	1.0
92	0	-0.5911099911	1.364109993	0	0	0	1.0
93	0	-0.5911099911	1.364109993	0	0	0	1.0
94	0	-0.5911099911	1.364109993	0	0	0	1.0
[RightUpLeg]
91	-0.9094099998	0	0	1.158818483	-8.283107758	79.95402527	1.0
92	-0.9094099998	0	0	1.48470211	-9.077219009	80.70425415	1.0
93	-0.9094099998	0	0	1.959900379	-11.73861027	81.10778046	1.0
94	-0.9094099998	0	0	1.945724368	-12.42312336	81.79063416	1.0
[RightLeg]
91	0	-4.498080254	0	24.98018074	-0.1765266359	82.47296906	1.0
92	0	-4.498080254	0	22.84233093	-1.969926357	82.90657806	1.0
93	0	-4.498080254	0	21.15358353	-3.070034504	83.19571686	1.0
94	0	-4.498080254	0	21.55046463	-2.589880466	83.57013702	1.0
[RightFoot]
91	0	-3.729400158	0	78.86608887	48.722435	115.7169571	1.0
92	0	-3.729400158	0	76.00941467	49.10410309	114.0978088	1.0
93	0	-3.729400158	0	76.33651733	46.88370895	113.8110962	1.0
94	0	-3.729400158	0	72.80358887	47.65041733	109.3440399	1.0
[RightToeBase]
91	0	-0.5911099911	1.364109993	0	0	0	1.0
92	0	-0.5911099911	1.364109993	0	0	0	1.0
93	0	-0.5911099911	1.364109993	0	0	0	1.0
94	0	-0.5911099911	1.364109993	0	0	0	1.0
[EndOfFile]
